<?xml version="1.0" encoding="UTF-8"?>
<svg width="520" height="160" viewBox="0 0 520 160" fill="none" xmlns="http://www.w3.org/2000/svg">
  <defs>
    <linearGradient id="g1" x1="22" y1="24" x2="120" y2="136" gradientUnits="userSpaceOnUse">
      <stop stop-color="#38BDF8"/>
      <stop offset="1" stop-color="#22C55E"/>
    </linearGradient>
    <linearGradient id="g2" x1="20" y1="120" x2="130" y2="30" gradientUnits="userSpaceOnUse">
      <stop stop-color="#FB923C"/>
      <stop offset="1" stop-color="#38BDF8"/>
    </linearGradient>
    <filter id="shadow" x="-20" y="-20" width="220" height="220" filterUnits="userSpaceOnUse">
      <feDropShadow dx="0" dy="12" stdDeviation="10" flood-color="#000000" flood-opacity="0.25"/>
    </filter>
  </defs>

  <!-- MARK -->
  <g filter="url(#shadow)">
    <circle cx="80" cy="80" r="52" fill="rgba(255,255,255,0.04)" />
    <!-- outer ring -->
    <path d="M80 24a56 56 0 1 1 0 112a56 56 0 1 1 0-112Z" fill="none" stroke="rgba(255,255,255,0.18)" stroke-width="10"/>

    <!-- arc 1 -->
    <path d="M80 26a54 54 0 0 1 51 36" stroke="url(#g1)" stroke-width="12" stroke-linecap="round"/>
    <!-- arc 2 -->
    <path d="M131 98a54 54 0 0 1-40 36" stroke="url(#g2)" stroke-width="12" stroke-linecap="round"/>
    <!-- arc 3 -->
    <path d="M56 134a54 54 0 0 1-28-62" stroke="rgba(34,197,94,0.85)" stroke-width="12" stroke-linecap="round"/>

    <!-- inner "system" core (document + badge vibe) -->
    <rect x="58" y="52" width="44" height="56" rx="12" fill="rgba(255,255,255,0.08)" stroke="rgba(255,255,255,0.18)"/>
    <rect x="64" y="60" width="22" height="6" rx="3" fill="rgba(255,255,255,0.60)"/>
    <rect x="64" y="72" width="32" height="6" rx="3" fill="rgba(255,255,255,0.40)"/>
    <rect x="64" y="84" width="28" height="6" rx="3" fill="rgba(255,255,255,0.35)"/>

    <circle cx="98" cy="104" r="12" fill="rgba(56,189,248,0.18)" stroke="rgba(56,189,248,0.65)" stroke-width="2"/>
    <path d="M98 98l2.4 4.6 5.2.8-3.8 3.7.9 5.2-4.7-2.5-4.7 2.5.9-5.2-3.8-3.7 5.2-.8L98 98Z"
          fill="rgba(251,146,60,0.95)"/>
  </g>

</svg>
